<?xml version="1.0" standalone="no"?>
<!DOCTYPE svg PUBLIC "-//W3C//DTD SVG 20010904//EN"
 "http://www.w3.org/TR/2001/REC-SVG-20010904/DTD/svg10.dtd">
<svg version="1.0" xmlns="http://www.w3.org/2000/svg"
 width="260.000000pt" height="260.000000pt" viewBox="0 0 260.000000 260.000000"
 preserveAspectRatio="xMidYMid meet">
<metadata>
Created by potrace 1.11, written by Peter Selinger 2001-2013
</metadata>
<g transform="translate(0.000000,260.000000) scale(0.100000,-0.100000)"
fill="#000000" stroke="none">
<path d="M1218 2493 c7 -3 16 -2 19 1 4 3 -2 6 -13 5 -11 0 -14 -3 -6 -6z"/>
<path d="M1258 2493 c7 -3 16 -2 19 1 4 3 -2 6 -13 5 -11 0 -14 -3 -6 -6z"/>
<path d="M1330 2496 c0 -2 7 -6 15 -10 8 -3 15 -1 15 4 0 6 -7 10 -15 10 -8 0
-15 -2 -15 -4z"/>
<path d="M1372 2484 c4 -3 12 -7 20 -8 52 -11 155 -59 217 -103 35 -24 67 -43
72 -41 18 6 -147 107 -215 133 -64 23 -107 32 -94 19z"/>
<path d="M1124 2446 c-5 -14 -9 -15 -15 -4 -5 7 -9 8 -9 2 0 -7 -11 -9 -25 -6
-14 2 -25 0 -25 -7 0 -6 -8 -8 -17 -4 -10 3 -15 3 -11 -1 3 -4 14 -9 23 -10 9
-1 21 -9 26 -17 5 -8 9 -9 9 -3 0 5 -6 16 -12 23 -11 10 -7 12 19 8 31 -5 64
15 50 30 -4 3 -10 -2 -13 -11z"/>
<path d="M1150 2450 c0 -6 7 -10 15 -10 8 0 15 2 15 4 0 2 -7 6 -15 10 -8 3
-15 1 -15 -4z"/>
<path d="M1195 2450 c-7 -12 18 -18 40 -10 17 6 16 7 -8 12 -15 3 -30 2 -32
-2z"/>
<path d="M1270 2451 c0 -6 17 -13 38 -16 56 -10 72 -15 72 -26 0 -5 4 -9 8 -9
5 0 9 7 9 15 0 8 -3 13 -5 10 -3 -3 -10 -1 -17 5 -6 5 -28 11 -48 14 -20 2
-41 7 -47 11 -5 3 -10 2 -10 -4z"/>
<path d="M1428 2404 c12 -8 35 -17 50 -20 19 -3 23 -2 12 5 -8 5 -18 7 -22 5
-4 -3 -8 0 -8 6 0 6 -4 9 -9 5 -5 -3 -12 -1 -16 5 -3 5 -11 10 -18 10 -6 0 -1
-7 11 -16z"/>
<path d="M936 2394 c-5 -14 -4 -15 9 -4 17 14 19 20 6 20 -5 0 -12 -7 -15 -16z"/>
<path d="M1215 2399 c7 -11 35 -12 35 -1 0 4 -9 8 -20 9 -11 1 -18 -2 -15 -8z"/>
<path d="M1020 2388 c0 -3 9 -6 20 -5 11 1 20 5 20 9 0 3 -9 6 -20 5 -11 -1
-20 -5 -20 -9z"/>
<path d="M1286 2385 c4 -10 13 -13 26 -9 14 4 18 2 14 -5 -4 -6 -6 -11 -4 -11
2 0 18 -4 36 -9 20 -6 30 -6 27 0 -4 5 -13 9 -21 9 -8 0 -14 4 -14 9 0 5 -14
14 -31 20 -40 14 -40 14 -33 -4z"/>
<path d="M990 2380 c0 -5 5 -10 11 -10 5 0 7 5 4 10 -3 6 -8 10 -11 10 -2 0
-4 -4 -4 -10z"/>
<path d="M926 2355 c4 -8 8 -15 10 -15 2 0 4 7 4 15 0 8 -4 15 -10 15 -5 0 -7
-7 -4 -15z"/>
<path d="M1480 2358 c0 -4 7 -8 15 -8 8 0 15 -4 15 -10 0 -5 7 -10 15 -10 8 0
15 -4 15 -10 0 -5 5 -10 11 -10 8 0 8 4 0 14 -9 11 -9 15 1 20 7 3 3 3 -10 0
-15 -4 -22 -1 -20 7 2 6 -7 12 -19 14 -13 1 -23 -2 -23 -7z"/>
<path d="M860 2350 c0 -5 5 -10 10 -10 6 0 10 5 10 10 0 6 -4 10 -10 10 -5 0
-10 -4 -10 -10z"/>
<path d="M1100 2350 c-11 -7 -4 -10 25 -9 31 0 36 2 20 9 -26 11 -28 11 -45 0z"/>
<path d="M1185 2350 c-15 -7 -10 -9 24 -9 46 -1 119 -19 136 -33 12 -11 25
-10 25 2 0 20 -154 53 -185 40z"/>
<path d="M1400 2346 c0 -9 5 -16 11 -16 6 0 49 -27 95 -60 47 -33 81 -53 75
-43 -10 19 -51 57 -51 48 0 -3 -24 12 -52 33 -74 54 -78 56 -78 38z"/>
<path d="M1030 2339 c0 -6 8 -8 19 -4 13 4 24 0 31 -12 11 -17 11 -17 6 0 -3
10 -6 21 -6 23 0 2 -11 4 -25 4 -14 0 -25 -5 -25 -11z"/>
<path d="M980 2330 c-9 -6 -10 -10 -3 -10 6 0 15 5 18 10 8 12 4 12 -15 0z"/>
<path d="M790 2319 c0 -5 5 -7 10 -4 6 3 10 8 10 11 0 2 -4 4 -10 4 -5 0 -10
-5 -10 -11z"/>
<path d="M1635 2310 c10 -11 20 -20 23 -20 3 0 -3 9 -13 20 -10 11 -20 20 -23
20 -3 0 3 -9 13 -20z"/>
<path d="M910 2308 c0 -4 7 -8 15 -8 8 0 15 4 15 8 0 5 -7 9 -15 9 -8 0 -15
-4 -15 -9z"/>
<path d="M1163 2313 c6 -9 -2 -11 -28 -9 -19 1 -40 -1 -47 -6 -8 -5 28 -8 82
-8 52 1 100 0 105 -1 6 -1 15 -3 20 -4 6 -1 24 -8 40 -15 17 -7 32 -14 35 -15
39 -13 159 -89 172 -109 5 -7 8 -7 8 -1 0 6 -8 17 -18 25 -31 27 -148 100
-159 100 -6 0 -32 9 -57 21 -35 15 -58 19 -87 14 -27 -5 -45 -3 -56 7 -11 8
-14 9 -10 1z"/>
<path d="M1577 2314 c-9 -9 48 -74 66 -74 6 0 -5 17 -24 37 -18 21 -34 39 -35
40 0 2 -3 0 -7 -3z"/>
<path d="M1680 2309 c0 -5 5 -7 10 -4 6 3 10 -1 10 -10 0 -9 5 -13 10 -10 8 5
7 11 -1 21 -14 17 -29 18 -29 3z"/>
<path d="M850 2300 c0 -5 5 -10 10 -10 6 0 10 5 10 10 0 6 -4 10 -10 10 -5 0
-10 -4 -10 -10z"/>
<path d="M1060 2299 c0 -7 -10 -9 -25 -7 -20 4 -23 3 -14 -8 8 -10 16 -11 30
-3 17 9 27 29 14 29 -3 0 -5 -5 -5 -11z"/>
<path d="M1395 2298 c11 -6 26 -18 33 -26 11 -14 12 -14 12 -1 0 9 -11 21 -25
27 -33 15 -47 15 -20 0z"/>
<path d="M980 2285 c7 -8 17 -15 22 -15 5 0 3 7 -6 15 -8 8 -18 15 -22 15 -3
0 -1 -7 6 -15z"/>
<path d="M1730 2281 c0 -6 4 -13 10 -16 6 -3 7 1 4 9 -7 18 -14 21 -14 7z"/>
<path d="M1765 2267 c10 -15 20 -25 23 -22 3 3 -5 16 -17 28 l-23 22 17 -28z"/>
<path d="M1093 2263 c14 -4 16 -8 6 -19 -15 -18 -29 -18 -29 1 0 9 -9 15 -22
14 -16 0 -18 -2 -8 -6 8 -4 20 -12 25 -20 7 -10 39 -15 105 -17 98 -4 198 -32
258 -74 47 -33 55 -36 50 -21 -3 8 -9 14 -14 14 -5 0 -29 12 -54 27 -81 47
-150 66 -253 69 -45 1 -55 4 -47 14 14 17 136 10 193 -11 23 -8 51 -18 62 -21
37 -11 184 -113 190 -133 4 -11 11 -18 16 -14 6 4 6 10 0 18 -6 7 -9 15 -7 17
10 10 -156 112 -224 137 -62 23 -92 28 -170 29 -52 1 -87 -1 -77 -4z"/>
<path d="M1456 2256 c3 -9 10 -13 15 -10 5 3 12 -2 15 -10 3 -9 10 -14 15 -11
4 3 13 -4 19 -16 7 -11 14 -18 18 -15 3 4 11 -6 18 -21 7 -16 13 -21 13 -12 1
8 -6 24 -14 35 -8 10 -15 15 -15 10 0 -4 -8 1 -17 12 -10 11 -30 28 -46 37
-24 16 -27 16 -21 1z"/>
<path d="M1805 2259 c-5 -8 -4 -10 0 -6 5 4 15 -3 22 -15 7 -13 12 -18 13 -12
0 5 -6 18 -13 29 -12 15 -15 16 -22 4z"/>
<path d="M740 2249 c0 -5 5 -7 10 -4 6 3 10 8 10 11 0 2 -4 4 -10 4 -5 0 -10
-5 -10 -11z"/>
<path d="M1681 2244 c0 -11 3 -14 6 -6 3 7 2 16 -1 19 -3 4 -6 -2 -5 -13z"/>
<path d="M770 2235 c0 -7 30 -13 34 -7 3 4 -4 9 -15 9 -10 1 -19 0 -19 -2z"/>
<path d="M1596 2227 c3 -10 9 -15 12 -12 3 3 0 11 -7 18 -10 9 -11 8 -5 -6z"/>
<path d="M908 2223 c6 -2 18 -2 25 0 6 3 1 5 -13 5 -14 0 -19 -2 -12 -5z"/>
<path d="M1035 2221 c-3 -5 -2 -12 3 -15 5 -3 9 1 9 9 0 17 -3 19 -12 6z"/>
<path d="M1634 2222 c4 -3 14 -7 22 -8 9 -1 13 0 10 4 -4 3 -14 7 -22 8 -9 1
-13 0 -10 -4z"/>
<path d="M1783 2223 c4 -3 1 -13 -6 -22 -11 -14 -10 -14 5 -2 16 12 16 31 1
31 -4 0 -3 -3 0 -7z"/>
<path d="M734 2208 c3 -15 26 -23 26 -8 0 6 -4 9 -9 6 -5 -4 -12 -1 -14 4 -3
6 -4 5 -3 -2z"/>
<path d="M856 2212 c-2 -4 4 -8 15 -8 10 0 19 4 19 8 0 4 -6 8 -14 8 -8 0 -17
-4 -20 -8z"/>
<path d="M978 2203 c7 -3 16 -2 19 1 4 3 -2 6 -13 5 -11 0 -14 -3 -6 -6z"/>
<path d="M1840 2205 c0 -5 5 -17 10 -25 5 -8 10 -10 10 -5 0 6 -5 17 -10 25
-5 8 -10 11 -10 5z"/>
<path d="M1587 2179 c4 -13 8 -18 11 -10 2 7 -1 18 -6 23 -8 8 -9 4 -5 -13z"/>
<path d="M1707 2189 c7 -7 15 -10 18 -7 3 3 -2 9 -12 12 -14 6 -15 5 -6 -5z"/>
<path d="M1794 2186 c-3 -8 -4 -25 -2 -38 3 -17 5 -13 9 15 5 38 2 47 -7 23z"/>
<path d="M853 2177 c-2 -4 -9 -5 -14 -2 -5 4 -9 1 -9 -5 0 -6 -4 -8 -10 -5 -5
3 -10 1 -10 -4 0 -15 23 -14 38 1 6 6 35 11 64 11 35 0 46 2 36 8 -19 10 -88
8 -95 -4z"/>
<path d="M730 2171 c0 -6 4 -13 10 -16 6 -3 7 1 4 9 -7 18 -14 21 -14 7z"/>
<path d="M1079 2158 c-12 -23 -12 -23 10 -4 23 21 26 26 11 26 -5 0 -15 -10
-21 -22z"/>
<path d="M1140 2168 c0 -4 4 -8 9 -8 6 0 12 4 15 8 3 5 -1 9 -9 9 -8 0 -15 -4
-15 -9z"/>
<path d="M1220 2170 c0 -5 7 -10 15 -10 8 0 15 5 15 10 0 6 -7 10 -15 10 -8 0
-15 -4 -15 -10z"/>
<path d="M1035 2159 c-11 -16 -1 -19 13 -3 7 8 8 14 3 14 -5 0 -13 -5 -16 -11z"/>
<path d="M1263 2153 c4 -25 47 -69 47 -47 0 10 5 12 13 7 13 -8 14 -8 61 -18
38 -8 48 -14 40 -26 -4 -6 -12 -5 -22 2 -13 10 -13 9 1 -7 14 -15 20 -16 26
-6 4 8 15 10 26 6 18 -7 18 -8 0 -14 -17 -6 -17 -7 3 -12 12 -4 20 -2 16 3
-11 18 9 9 27 -13 11 -11 19 -17 19 -12 0 5 6 2 13 -7 14 -18 47 -32 47 -20 0
5 -9 11 -20 14 -11 3 -20 9 -19 14 1 4 1 15 0 23 -1 12 -3 13 -10 1 -5 -7 -14
-10 -20 -7 -6 4 -9 12 -5 17 3 5 2 9 -3 8 -20 -3 -34 2 -28 11 4 6 3 10 -2 9
-19 -3 -34 2 -28 10 3 5 0 13 -6 17 -8 5 -9 3 -4 -6 6 -10 4 -12 -9 -7 -10 4
-21 7 -24 7 -4 0 0 5 8 11 12 8 10 9 -7 4 -30 -8 -104 14 -126 38 -17 19 -17
19 -14 0z"/>
<path d="M1656 2157 c3 -10 9 -15 12 -12 3 3 0 11 -7 18 -10 9 -11 8 -5 -6z"/>
<path d="M765 2144 c-38 -20 -39 -20 -21 -27 7 -3 24 5 37 19 26 28 24 29 -16
8z"/>
<path d="M1306 2151 c10 -11 72 -27 63 -17 -4 4 -21 11 -39 16 -20 6 -30 6
-24 1z"/>
<path d="M995 2140 c3 -5 8 -10 11 -10 2 0 4 5 4 10 0 6 -5 10 -11 10 -5 0 -7
-4 -4 -10z"/>
<path d="M899 2118 c-12 -22 -11 -22 8 -5 11 9 23 14 26 10 4 -3 7 -1 7 5 0
21 -29 13 -41 -10z"/>
<path d="M1047 2134 c-14 -15 -6 -23 18 -18 14 2 25 0 25 -6 0 -6 -4 -9 -8 -6
-4 2 -14 0 -22 -5 -11 -6 -3 -8 25 -6 21 2 41 9 43 16 2 6 0 11 -5 10 -21 -4
-34 2 -27 12 5 8 1 8 -14 0 -14 -8 -21 -8 -24 0 -2 6 -7 7 -11 3z"/>
<path d="M1140 2130 c7 -4 10 -12 7 -17 -3 -5 3 -10 14 -10 12 -1 19 5 19 15
0 13 2 14 9 3 7 -11 9 -11 14 0 3 8 6 9 6 2 1 -6 10 -9 21 -6 39 10 19 19 -41
20 -33 0 -55 -3 -49 -7z"/>
<path d="M1570 2131 c0 -6 4 -13 10 -16 6 -3 7 1 4 9 -7 18 -14 21 -14 7z"/>
<path d="M1660 2088 c4 -28 11 -42 19 -40 9 2 11 -5 6 -20 -5 -20 -4 -21 5 -5
12 19 4 41 -11 32 -5 -4 -9 12 -9 34 0 23 -4 41 -8 41 -5 0 -6 -19 -2 -42z"/>
<path d="M1720 2114 c0 -8 5 -12 10 -9 6 4 8 11 5 16 -9 14 -15 11 -15 -7z"/>
<path d="M854 2106 c-3 -9 -10 -14 -14 -11 -5 3 -11 1 -15 -5 -9 -15 18 -12
40 3 12 10 15 16 6 21 -6 4 -14 0 -17 -8z"/>
<path d="M1007 2114 c-3 -3 -3 -13 0 -22 5 -11 3 -13 -8 -6 -13 8 -58 19 -48
11 42 -32 54 -34 74 -15 11 11 16 19 10 18 -21 -5 -29 1 -15 10 8 5 10 10 4
10 -6 0 -13 -3 -17 -6z"/>
<path d="M1862 2095 c0 -16 2 -22 5 -12 2 9 2 23 0 30 -3 6 -5 -1 -5 -18z"/>
<path d="M1602 2085 c0 -16 2 -22 5 -12 2 9 2 23 0 30 -3 6 -5 -1 -5 -18z"/>
<path d="M740 2095 c0 -5 5 -17 10 -25 5 -8 10 -10 10 -5 0 6 -5 17 -10 25 -5
8 -10 11 -10 5z"/>
<path d="M920 2089 c0 -5 5 -7 10 -4 6 3 10 8 10 11 0 2 -4 4 -10 4 -5 0 -10
-5 -10 -11z"/>
<path d="M865 2073 c-39 -20 -36 -18 -29 -37 3 -9 13 -16 22 -16 12 0 13 3 4
12 -7 7 -12 16 -12 21 0 5 7 1 16 -8 15 -14 18 -14 33 -1 10 9 29 17 44 18 14
1 24 5 21 9 -2 4 -13 5 -23 2 -10 -3 -22 0 -25 6 -9 14 -15 13 -51 -6z m40
-14 c-4 -5 -13 -9 -21 -9 -12 0 -12 2 -2 14 14 15 32 11 23 -5z"/>
<path d="M1856 2043 c-4 -9 0 -23 9 -33 8 -9 12 -20 8 -25 -5 -4 -2 -5 4 -1
10 5 9 12 -3 31 -11 17 -12 24 -2 27 8 3 9 6 1 11 -6 4 -14 0 -17 -10z"/>
<path d="M797 2043 c-13 -13 -7 -25 9 -19 14 5 15 4 5 -7 -12 -15 -5 -25 29
-41 10 -5 9 -2 -2 7 -11 9 -14 17 -7 24 6 6 3 15 -9 26 -10 9 -22 14 -25 10z"/>
<path d="M1816 2028 c3 -5 10 -6 15 -3 13 9 11 12 -6 12 -8 0 -12 -4 -9 -9z"/>
<path d="M921 2006 c-20 -11 -21 -14 -7 -19 12 -5 15 -3 10 5 -5 8 -2 9 10 5
9 -4 15 -3 11 2 -3 5 1 12 7 14 7 3 9 6 3 6 -5 0 -21 -6 -34 -13z"/>
<path d="M1640 1991 c0 -6 4 -13 10 -16 6 -3 7 1 4 9 -7 18 -14 21 -14 7z"/>
<path d="M1665 1918 c-22 -23 -33 -37 -24 -30 9 6 18 11 20 9 2 -1 3 0 1 2 -1
3 10 17 25 33 15 15 25 28 22 28 -3 0 -23 -19 -44 -42z"/>
<path d="M1860 1956 c0 -2 7 -7 16 -10 8 -3 12 -2 9 4 -6 10 -25 14 -25 6z"/>
<path d="M1731 1906 c-14 -14 -30 -22 -40 -19 -14 4 -14 3 -1 -6 11 -7 20 -5
36 10 11 10 23 17 26 14 2 -3 5 2 5 10 0 19 1 19 -26 -9z"/>
<path d="M1900 1909 c0 -5 5 -7 10 -4 6 3 10 8 10 11 0 2 -4 4 -10 4 -5 0 -10
-5 -10 -11z"/>
<path d="M1850 1900 c-8 -5 -12 -12 -9 -15 4 -3 12 1 19 10 14 17 11 19 -10 5z"/>
<path d="M1895 1880 c3 -5 8 -10 11 -10 2 0 4 5 4 10 0 6 -5 10 -11 10 -5 0
-7 -4 -4 -10z"/>
<path d="M1470 1865 c-14 -8 -20 -14 -14 -15 5 0 19 7 30 15 24 18 16 19 -16
0z"/>
<path d="M1870 1850 c-6 -11 -7 -20 -2 -20 6 0 12 9 15 20 3 11 3 20 1 20 -2
0 -8 -9 -14 -20z"/>
<path d="M1754 1838 l-19 -23 23 19 c21 18 27 26 19 26 -2 0 -12 -10 -23 -22z"/>
<path d="M1489 1823 c-13 -16 -12 -17 4 -4 9 7 17 15 17 17 0 8 -8 3 -21 -13z"/>
<path d="M1783 1815 c4 -5 -1 -17 -10 -27 -15 -17 -15 -18 -1 -13 22 9 30 33
15 41 -7 4 -9 3 -4 -1z"/>
<path d="M1805 1763 l-48 -58 52 53 c29 30 51 56 48 58 -2 2 -26 -21 -52 -53z"/>
<path d="M1565 1789 c-11 -16 -1 -19 13 -3 7 8 8 14 3 14 -5 0 -13 -5 -16 -11z"/>
<path d="M1275 1780 c3 -5 8 -10 11 -10 2 0 4 5 4 10 0 6 -5 10 -11 10 -5 0
-7 -4 -4 -10z"/>
<path d="M1462 1760 c2 -7 -5 -14 -15 -15 -11 -2 -22 -6 -25 -9 -3 -4 4 -5 16
-3 29 4 48 22 33 32 -6 3 -10 1 -9 -5z"/>
<path d="M1495 1759 c-11 -16 -1 -19 13 -3 7 8 8 14 3 14 -5 0 -13 -5 -16 -11z"/>
<path d="M1705 1744 c-7 -7 -15 -10 -19 -7 -3 4 -6 0 -6 -8 0 -9 -3 -10 -8 -3
-5 7 -14 5 -27 -9 -11 -11 -14 -17 -8 -13 7 4 23 9 34 11 12 3 31 12 41 22 11
10 22 17 25 15 3 -2 7 -2 9 1 2 2 -3 4 -12 4 -9 0 -22 -6 -29 -13z"/>
<path d="M978 1738 c5 -5 16 -8 23 -6 8 3 3 7 -10 11 -17 4 -21 3 -13 -5z"/>
<path d="M1864 1725 c-9 -14 -15 -28 -12 -30 2 -2 12 9 22 25 21 36 13 40 -10
5z"/>
<path d="M1128 1733 c7 -3 16 -2 19 1 4 3 -2 6 -13 5 -11 0 -14 -3 -6 -6z"/>
<path d="M1169 1729 c-10 -6 -4 -9 19 -9 17 0 32 2 32 4 0 9 -39 13 -51 5z"/>
<path d="M1385 1720 c-3 -5 -1 -10 4 -10 6 0 11 5 11 10 0 6 -2 10 -4 10 -3 0
-8 -4 -11 -10z"/>
<path d="M1258 1713 c7 -3 16 -2 19 1 4 3 -2 6 -13 5 -11 0 -14 -3 -6 -6z"/>
<path d="M1308 1703 c6 -2 18 -2 25 0 6 3 1 5 -13 5 -14 0 -19 -2 -12 -5z"/>
<path d="M1395 1700 l-40 -7 37 -2 c20 0 40 4 43 9 3 6 5 9 3 9 -2 -1 -21 -5
-43 -9z"/>
<path d="M870 1689 c0 -5 9 -9 20 -9 11 0 20 2 20 4 0 2 -9 6 -20 9 -11 3 -20
1 -20 -4z"/>
<path d="M921 1693 c-1 -17 16 -25 25 -12 4 7 3 9 -4 5 -5 -3 -13 0 -15 6 -4
9 -6 10 -6 1z"/>
<path d="M1006 1693 c-10 -11 -7 -25 4 -18 6 4 18 1 26 -6 12 -10 13 -9 8 4
-6 17 -29 29 -38 20z"/>
<path d="M1580 1690 c0 -5 7 -10 16 -10 8 0 12 5 9 10 -3 6 -10 10 -16 10 -5
0 -9 -4 -9 -10z"/>
<path d="M1095 1680 c28 -4 62 -10 78 -13 15 -3 27 -2 27 2 0 9 -78 22 -124
20 -22 -1 -17 -4 19 -9z"/>
<path d="M1448 1683 c6 -2 18 -2 25 0 6 3 1 5 -13 5 -14 0 -19 -2 -12 -5z"/>
<path d="M1670 1680 c-13 -8 -12 -10 3 -10 9 0 17 5 17 10 0 12 -1 12 -20 0z"/>
<path d="M956 1672 c-3 -5 1 -9 9 -9 8 0 12 4 9 9 -3 4 -7 8 -9 8 -2 0 -6 -4
-9 -8z"/>
<path d="M1517 1670 c13 -5 33 -11 45 -12 31 -5 88 -31 88 -40 0 -5 6 -8 14
-8 8 0 26 -14 39 -30 14 -17 28 -26 31 -21 8 13 -56 66 -106 89 -24 10 -63 21
-88 25 -32 4 -39 4 -23 -3z"/>
<path d="M1828 1673 c7 -3 16 -2 19 1 4 3 -2 6 -13 5 -11 0 -14 -3 -6 -6z"/>
<path d="M1211 1666 c2 -2 24 -7 49 -11 24 -4 47 -8 50 -10 3 -2 30 -6 60 -10
30 -3 70 -10 89 -15 30 -8 33 -8 20 5 -8 8 -39 16 -69 19 -30 3 -79 10 -109
16 -55 10 -98 13 -90 6z"/>
<path d="M820 1639 c0 -5 8 -9 18 -10 9 0 25 -2 36 -4 11 -2 15 0 10 5 -13 13
-64 20 -64 9z"/>
<path d="M940 1639 c0 -5 -6 -7 -12 -3 -7 4 -9 3 -5 -1 13 -15 36 -14 30 1 -6
17 -13 18 -13 3z"/>
<path d="M1050 1632 c-13 -14 -12 -15 2 -10 8 4 20 2 26 -4 6 -6 12 -6 16 1
12 19 -27 31 -44 13z"/>
<path d="M1120 1631 c0 -5 7 -12 16 -15 14 -5 15 -4 4 9 -14 17 -20 19 -20 6z"/>
<path d="M1496 1626 c4 -10 16 -16 33 -15 20 1 22 2 6 6 -11 3 -26 10 -33 15
-9 8 -11 7 -6 -6z"/>
<path d="M1179 1617 c15 -19 41 -23 41 -7 0 6 -4 10 -9 10 -5 0 -18 3 -28 7
-16 6 -16 5 -4 -10z"/>
<path d="M1785 1619 c-4 -6 -5 -12 -2 -15 2 -3 7 2 10 11 7 17 1 20 -8 4z"/>
<path d="M1242 1607 c18 -18 58 -23 58 -7 0 6 -9 10 -19 10 -11 0 -28 3 -38 7
-17 6 -17 6 -1 -10z"/>
<path d="M1556 1603 c-6 -14 8 -32 24 -33 3 0 27 -20 53 -45 26 -25 47 -41 47
-34 0 6 -17 27 -37 46 -21 19 -38 39 -38 45 0 6 -7 13 -15 15 -13 4 -13 3 0
-7 13 -9 12 -11 -5 -8 -12 2 -19 10 -17 21 4 22 -4 22 -12 0z"/>
<path d="M806 1586 c3 -7 20 -10 45 -8 49 5 46 10 -8 16 -29 2 -40 0 -37 -8z"/>
<path d="M1010 1589 c-34 -6 -35 -6 -5 -8 17 0 73 -8 125 -16 52 -8 111 -17
130 -20 19 -3 64 -10 100 -16 36 -6 76 -12 90 -14 14 -2 34 -6 45 -10 14 -6
17 -5 10 3 -11 12 -129 39 -194 46 -20 2 -65 8 -101 14 -36 6 -85 14 -110 17
-24 4 -47 8 -50 9 -3 1 -21 -1 -40 -5z"/>
<path d="M1370 1589 c0 -5 5 -7 10 -4 6 3 10 8 10 11 0 2 -4 4 -10 4 -5 0 -10
-5 -10 -11z"/>
<path d="M913 1583 c9 -2 25 -2 35 0 9 3 1 5 -18 5 -19 0 -27 -2 -17 -5z"/>
<path d="M1420 1578 c0 -6 3 -8 7 -5 3 4 13 1 22 -6 14 -11 14 -10 2 6 -15 20
-31 22 -31 5z"/>
<path d="M1470 1570 c0 -5 21 -19 47 -32 27 -13 61 -36 77 -53 17 -19 24 -22
18 -10 -6 11 -21 30 -34 41 -28 26 -108 66 -108 54z"/>
<path d="M1625 1570 c3 -5 8 -10 11 -10 2 0 4 5 4 10 0 6 -5 10 -11 10 -5 0
-7 -4 -4 -10z"/>
<path d="M1650 1576 c0 -2 8 -10 18 -17 15 -13 16 -12 3 4 -13 16 -21 21 -21
13z"/>
<path d="M800 1556 c0 -2 8 -10 18 -17 15 -13 16 -12 3 4 -13 16 -21 21 -21
13z"/>
<path d="M945 1549 c-4 -5 -11 -7 -16 -4 -5 4 -9 1 -9 -4 0 -6 14 -11 30 -11
17 0 30 4 30 9 0 13 -28 22 -35 10z"/>
<path d="M1040 1544 c0 -8 4 -13 9 -9 5 3 12 1 16 -5 9 -14 55 -13 55 2 0 6
-3 9 -6 5 -4 -3 -22 0 -40 8 -30 12 -34 12 -34 -1z"/>
<path d="M844 1538 c-3 -4 11 -8 30 -8 20 0 36 5 36 10 0 12 -59 10 -66 -2z"/>
<path d="M990 1540 c0 -5 9 -10 20 -10 11 0 20 5 20 10 0 6 -9 10 -20 10 -11
0 -20 -4 -20 -10z"/>
<path d="M1750 1541 c0 -5 7 -12 16 -15 14 -5 15 -4 4 9 -14 17 -20 19 -20 6z"/>
<path d="M1149 1523 c-13 -16 -12 -17 4 -4 9 7 17 15 17 17 0 8 -8 3 -21 -13z"/>
<path d="M1720 1529 c0 -5 5 -7 10 -4 6 3 10 8 10 11 0 2 -4 4 -10 4 -5 0 -10
-5 -10 -11z"/>
<path d="M1174 1518 c-4 -6 -3 -8 4 -4 6 3 14 1 17 -4 4 -6 17 -10 28 -9 12 1
30 -1 40 -6 10 -4 31 -5 47 -2 16 4 32 2 35 -3 3 -5 13 -9 23 -9 30 -1 57 -7
71 -16 10 -5 12 -4 7 3 -4 7 -5 12 -2 12 9 0 100 -52 121 -69 20 -16 20 -16 0
8 -16 19 -65 51 -85 56 -3 1 -12 5 -20 8 -14 7 -68 16 -100 19 -8 0 -20 5 -27
10 -7 5 -17 7 -22 3 -6 -3 -27 -2 -46 4 -22 6 -35 6 -35 0 0 -6 -8 -6 -19 1
-25 13 -28 13 -37 -2z"/>
<path d="M799 1507 c16 -20 61 -19 53 1 -2 7 -8 10 -11 5 -8 -11 -22 -10 -41
2 -13 8 -13 6 -1 -8z"/>
<path d="M876 1502 c-3 -4 4 -9 15 -9 23 -2 25 3 4 10 -8 4 -16 3 -19 -1z"/>
<path d="M946 1502 c-2 -4 4 -8 14 -8 10 0 16 4 14 8 -3 4 -9 8 -14 8 -5 0
-11 -4 -14 -8z"/>
<path d="M1005 1500 c-3 -5 8 -8 23 -8 16 1 35 -3 42 -7 7 -4 31 -9 54 -10 22
-1 73 -7 111 -14 39 -6 86 -13 105 -16 95 -13 118 -19 162 -41 25 -13 55 -35
67 -50 13 -16 21 -21 21 -12 0 17 -36 58 -51 58 -6 0 -23 8 -37 19 -33 22
-231 59 -465 86 -15 2 -29 -1 -32 -5z"/>
<path d="M1534 1485 c11 -8 23 -21 28 -27 6 -10 8 -9 8 3 0 9 -12 21 -27 28
-26 10 -27 10 -9 -4z"/>
<path d="M1730 1480 c0 -11 4 -20 9 -20 5 0 7 9 4 20 -3 11 -7 20 -9 20 -2 0
-4 -9 -4 -20z"/>
<path d="M802 1466 c7 -8 17 -12 22 -9 4 3 2 9 -5 14 -22 13 -31 11 -17 -5z"/>
<path d="M943 1465 c0 -8 4 -15 9 -15 4 0 8 4 8 9 0 6 -4 12 -8 15 -5 3 -9 -1
-9 -9z"/>
<path d="M1016 1466 c2 -6 19 -13 37 -15 61 -5 82 -8 142 -19 33 -7 80 -14
105 -16 25 -3 66 -10 90 -15 54 -12 84 -13 55 -2 -22 9 -95 22 -265 47 -63 9
-127 20 -142 24 -19 6 -26 5 -22 -4z"/>
<path d="M865 1460 c3 -5 10 -10 16 -10 5 0 9 5 9 10 0 6 -7 10 -16 10 -8 0
-12 -4 -9 -10z"/>
<path d="M900 1460 c0 -5 7 -7 15 -4 8 4 15 8 15 10 0 2 -7 4 -15 4 -8 0 -15
-4 -15 -10z"/>
<path d="M1672 1445 c6 -14 13 -24 14 -22 6 6 -9 47 -17 47 -5 0 -3 -11 3 -25z"/>
<path d="M1778 1445 c2 -14 6 -25 8 -25 2 0 4 11 4 25 0 14 -4 25 -9 25 -4 0
-6 -11 -3 -25z"/>
<path d="M1811 1454 c0 -11 3 -14 6 -6 3 7 2 16 -1 19 -3 4 -6 -2 -5 -13z"/>
<path d="M1742 1435 c1 -10 9 -20 16 -21 7 -1 8 0 2 3 -5 2 -8 9 -5 13 3 5 0
12 -6 15 -7 5 -10 1 -7 -10z"/>
<path d="M892 1428 c-6 -6 -12 -17 -12 -22 0 -6 5 -4 10 4 5 8 10 10 10 5 0
-14 60 -13 60 0 0 7 3 7 8 0 10 -14 60 -13 66 1 5 13 -11 13 -31 1 -7 -5 -13
-4 -13 1 0 10 -46 10 -56 -1 -4 -4 -12 0 -18 9 -9 12 -14 12 -24 2z"/>
<path d="M816 1422 c-3 -6 7 -23 24 -39 30 -28 65 -37 87 -21 8 7 10 2 7 -14
-2 -13 -2 -17 2 -10 3 6 9 10 14 7 4 -3 6 4 3 15 -6 21 -33 28 -33 9 0 -8 -5
-8 -15 1 -8 7 -15 9 -15 4 0 -5 -5 -2 -10 6 -7 11 -10 11 -10 2 0 -10 -3 -10
-13 0 -8 7 -12 22 -10 33 2 11 0 14 -3 6 -5 -10 -8 -10 -14 -1 -5 8 -10 9 -14
2z"/>
<path d="M861 1414 c0 -11 3 -14 6 -6 3 7 2 16 -1 19 -3 4 -6 -2 -5 -13z"/>
<path d="M1820 1412 c6 -13 14 -21 18 -18 3 4 -2 14 -12 24 -18 16 -18 16 -6
-6z"/>
<path d="M1046 1412 c-3 -4 4 -9 15 -9 23 -2 25 3 4 10 -8 4 -16 3 -19 -1z"/>
<path d="M1090 1399 c0 -14 29 -17 34 -4 3 9 -2 13 -15 12 -10 -1 -19 -4 -19
-8z"/>
<path d="M1664 1398 c-4 -7 -4 -10 1 -6 4 4 14 3 22 -3 10 -9 13 -8 13 5 0 19
-26 22 -36 4z"/>
<path d="M1064 1366 c6 -34 12 -41 19 -24 2 8 -2 23 -10 33 -13 19 -14 18 -9
-9z"/>
<path d="M1230 1375 c0 -8 -5 -15 -12 -15 -6 0 -3 -7 8 -15 23 -17 34 -19 34
-5 0 6 -6 10 -14 10 -9 0 -12 7 -9 20 3 11 3 20 -1 20 -3 0 -6 -7 -6 -15z"/>
<path d="M1490 1380 c0 -5 5 -10 11 -10 5 0 7 5 4 10 -3 6 -8 10 -11 10 -2 0
-4 -4 -4 -10z"/>
<path d="M1621 1375 c-1 -12 4 -26 9 -31 6 -6 13 -34 17 -62 3 -29 9 -52 13
-52 4 0 3 21 -1 47 -5 26 -7 54 -4 61 3 7 1 11 -4 7 -5 -3 -14 7 -19 22 -9 23
-11 24 -11 8z"/>
<path d="M1795 1380 c3 -5 8 -10 11 -10 2 0 4 5 4 10 0 6 -5 10 -11 10 -5 0
-7 -4 -4 -10z"/>
<path d="M1006 1364 c-9 -24 -7 -27 7 -15 10 8 17 7 26 -2 10 -9 11 -9 6 5 -9
23 -32 30 -39 12z"/>
<path d="M1157 1363 c-11 -11 -17 -13 -17 -5 0 7 -5 12 -10 12 -6 0 -5 -8 2
-19 7 -12 16 -17 23 -12 5 5 18 7 28 6 9 -2 17 1 17 7 0 6 -7 7 -16 4 -12 -4
-15 -2 -10 9 7 19 4 19 -17 -2z"/>
<path d="M1285 1370 c3 -5 11 -10 16 -10 6 0 7 5 4 10 -3 6 -11 10 -16 10 -6
0 -7 -4 -4 -10z"/>
<path d="M1330 1370 c0 -5 5 -10 11 -10 5 0 7 5 4 10 -3 6 -8 10 -11 10 -2 0
-4 -4 -4 -10z"/>
<path d="M1836 1353 c9 -38 14 -42 14 -10 0 14 -5 29 -10 32 -7 4 -8 -3 -4
-22z"/>
<path d="M1371 1354 c0 -11 3 -14 6 -6 3 7 2 16 -1 19 -3 4 -6 -2 -5 -13z"/>
<path d="M1421 1344 c0 -11 3 -14 6 -6 3 7 2 16 -1 19 -3 4 -6 -2 -5 -13z"/>
<path d="M1521 1357 c2 -1 15 -11 28 -22 l24 -20 -14 23 c-8 12 -20 22 -28 22
-8 0 -12 -1 -10 -3z"/>
<path d="M1771 1344 c0 -11 3 -14 6 -6 3 7 2 16 -1 19 -3 4 -6 -2 -5 -13z"/>
<path d="M1896 1348 c3 -5 10 -6 15 -3 13 9 11 12 -6 12 -8 0 -12 -4 -9 -9z"/>
<path d="M1270 1328 c0 -5 6 -8 13 -7 6 2 29 -2 50 -9 39 -11 67 -7 67 9 0 5
-11 7 -25 5 -13 -3 -27 0 -31 5 -7 12 -74 8 -74 -3z"/>
<path d="M1607 1319 c4 -13 8 -18 11 -10 2 7 -1 18 -6 23 -8 8 -9 4 -5 -13z"/>
<path d="M1704 1325 c-4 -8 -4 -21 -1 -29 3 -8 1 -17 -6 -20 -7 -2 -7 -5 -2
-5 24 -2 37 16 26 36 -5 11 -7 23 -4 27 3 3 3 6 -1 6 -3 0 -9 -7 -12 -15z"/>
<path d="M928 1313 c7 -3 16 -2 19 1 4 3 -2 6 -13 5 -11 0 -14 -3 -6 -6z"/>
<path d="M1234 1309 c-3 -5 -2 -9 3 -8 4 1 10 0 13 -1 18 -6 39 -7 35 0 -8 12
-44 19 -51 9z"/>
<path d="M1420 1310 c-11 -7 -6 -10 20 -11 54 -3 58 -4 66 -12 4 -4 14 -7 21
-7 22 0 46 -27 30 -34 -8 -4 -7 -5 3 -5 33 2 41 -2 55 -33 10 -22 12 -24 8 -8
-4 14 -7 32 -7 41 0 11 -7 14 -21 11 -18 -5 -19 -4 -5 13 14 17 13 18 -3 12
-11 -4 -20 -1 -23 8 -3 8 -12 11 -21 8 -10 -4 -14 -2 -9 5 3 6 1 14 -5 18 -7
4 -9 3 -5 -4 4 -7 -3 -9 -21 -7 -16 2 -28 4 -28 5 0 7 -44 7 -55 0z"/>
<path d="M1770 1295 c0 -8 4 -15 10 -15 5 0 7 7 4 15 -4 8 -8 15 -10 15 -2 0
-4 -7 -4 -15z"/>
<path d="M1315 1290 c-3 -5 -1 -10 4 -10 6 0 11 5 11 10 0 6 -2 10 -4 10 -3 0
-8 -4 -11 -10z"/>
<path d="M1430 1286 c0 -3 9 -10 20 -16 11 -6 20 -8 20 -6 0 3 -9 10 -20 16
-11 6 -20 8 -20 6z"/>
<path d="M1620 1285 c0 -5 5 -17 10 -25 5 -8 10 -10 10 -5 0 6 -5 17 -10 25
-5 8 -10 11 -10 5z"/>
<path d="M1495 1260 c11 -5 27 -9 35 -9 9 0 8 4 -5 9 -11 5 -27 9 -35 9 -9 0
-8 -4 5 -9z"/>
<path d="M1852 1250 c0 -14 2 -19 5 -12 2 6 2 18 0 25 -3 6 -5 1 -5 -13z"/>
<path d="M1782 1220 c0 -19 2 -27 5 -17 2 9 2 25 0 35 -3 9 -5 1 -5 -18z"/>
<path d="M1646 1212 c-3 -6 -2 -13 4 -17 5 -3 10 -21 10 -40 0 -19 3 -36 8
-38 9 -7 2 86 -8 96 -4 5 -11 4 -14 -1z"/>
<path d="M1871 1204 c0 -11 3 -14 6 -6 3 7 2 16 -1 19 -3 4 -6 -2 -5 -13z"/>
<path d="M1918 1180 c-3 -16 -1 -30 4 -30 4 0 8 14 8 30 0 17 -2 30 -4 30 -2
0 -6 -13 -8 -30z"/>
<path d="M1751 1164 c0 -11 3 -14 6 -6 3 7 2 16 -1 19 -3 4 -6 -2 -5 -13z"/>
<path d="M1871 1164 c0 -11 3 -14 6 -6 3 7 2 16 -1 19 -3 4 -6 -2 -5 -13z"/>
<path d="M1616 1137 c3 -10 9 -15 12 -12 3 3 0 11 -7 18 -10 9 -11 8 -5 -6z"/>
<path d="M1782 1130 c0 -14 2 -19 5 -12 2 6 2 18 0 25 -3 6 -5 1 -5 -13z"/>
<path d="M1920 1130 c0 -5 5 -10 11 -10 5 0 7 5 4 10 -3 6 -8 10 -11 10 -2 0
-4 -4 -4 -10z"/>
<path d="M1655 1091 c-3 -5 -1 -12 5 -16 5 -3 10 1 10 9 0 18 -6 21 -15 7z"/>
<path d="M1830 1079 c0 -5 5 -7 10 -4 6 3 10 8 10 11 0 2 -4 4 -10 4 -5 0 -10
-5 -10 -11z"/>
<path d="M1645 1040 c-19 -8 -19 -9 3 -9 12 -1 22 4 22 9 0 6 -1 10 -2 9 -2 0
-12 -4 -23 -9z"/>
<path d="M1697 1009 c7 -7 15 -10 18 -7 3 3 -2 9 -12 12 -14 6 -15 5 -6 -5z"/>
<path d="M1824 958 c-19 -23 -19 -23 2 -5 11 9 24 14 29 10 4 -5 5 -2 1 5 -9
16 -10 16 -32 -10z"/>
<path d="M780 968 c0 -11 70 -83 70 -72 0 5 -6 17 -12 25 -18 21 -58 53 -58
47z"/>
<path d="M760 932 c0 -15 27 -45 32 -36 3 5 -3 17 -14 27 -10 9 -18 13 -18 9z"/>
<path d="M1931 911 c-10 -23 -10 -24 2 -8 16 19 32 24 21 5 -4 -7 -3 -8 4 -4
17 10 15 33 -2 33 -8 0 -19 -12 -25 -26z"/>
<path d="M730 909 c0 -6 -8 -9 -17 -5 -10 3 -5 -4 12 -17 42 -32 105 -95 105
-105 0 -9 43 -42 54 -42 13 0 -97 117 -134 142 -19 13 -20 16 -5 11 18 -6 18
-5 6 10 -16 20 -21 21 -21 6z"/>
<path d="M1550 910 c-8 -5 -10 -10 -5 -10 6 0 17 5 25 10 8 5 11 10 5 10 -5 0
-17 -5 -25 -10z"/>
<path d="M861 896 c2 -2 13 -8 25 -14 16 -9 21 -8 21 4 0 8 -10 14 -25 14 -14
0 -23 -2 -21 -4z"/>
<path d="M1835 871 c0 -16 4 -33 9 -38 5 -5 6 -2 1 6 -4 7 -3 16 4 20 8 5 8
12 -2 24 -11 15 -12 14 -12 -12z"/>
<path d="M1886 870 l-17 -35 22 21 c12 12 19 28 17 35 -3 8 -12 -1 -22 -21z"/>
<path d="M920 878 c0 -9 5 -20 11 -23 17 -11 18 -2 3 19 -12 17 -14 17 -14 4z"/>
<path d="M1415 880 c-3 -5 -1 -10 4 -10 6 0 11 5 11 10 0 6 -2 10 -4 10 -3 0
-8 -4 -11 -10z"/>
<path d="M1515 880 c-3 -6 1 -7 9 -4 18 7 21 14 7 14 -6 0 -13 -4 -16 -10z"/>
<path d="M670 875 c1 -10 45 -65 53 -65 2 0 3 10 1 23 -1 12 -3 25 -3 30 -1 4
-6 7 -12 7 -8 0 -8 -5 1 -15 8 -9 9 -15 2 -15 -6 0 -18 10 -26 22 -9 12 -16
18 -16 13z"/>
<path d="M1372 867 c-8 -10 -6 -13 11 -14 12 0 16 1 9 4 -6 3 -10 9 -6 14 8
14 -2 11 -14 -4z"/>
<path d="M1736 872 c-3 -5 1 -9 9 -9 8 0 12 4 9 9 -3 4 -7 8 -9 8 -2 0 -6 -4
-9 -8z"/>
<path d="M830 860 c0 -5 8 -14 19 -19 10 -6 28 -27 40 -47 12 -20 24 -34 27
-31 9 9 -64 107 -80 107 -3 0 -6 -4 -6 -10z"/>
<path d="M1660 850 c-38 -13 -150 -33 -191 -36 -51 -3 -121 -15 -116 -20 6 -6
147 12 242 31 44 9 86 17 93 17 6 1 12 5 12 10 0 9 -5 9 -40 -2z"/>
<path d="M1901 824 c-13 -13 -27 -21 -32 -18 -5 3 -6 -2 -2 -11 5 -14 11 -12
36 14 17 17 29 32 26 35 -2 3 -15 -6 -28 -20z"/>
<path d="M654 821 c3 -5 16 -11 28 -14 22 -6 22 -5 4 8 -22 17 -40 20 -32 6z"/>
<path d="M906 819 c3 -5 10 -9 16 -9 7 0 23 -10 37 -22 l24 -23 -19 27 c-17
23 -72 49 -58 27z"/>
<path d="M1005 790 c42 -43 61 -55 29 -18 -35 40 -54 58 -61 58 -4 0 11 -18
32 -40z"/>
<path d="M1626 803 c-6 -14 -5 -15 5 -6 7 7 10 15 7 18 -3 3 -9 -2 -12 -12z"/>
<path d="M1657 802 c3 -7 9 -10 12 -5 3 4 10 11 15 15 4 4 -1 6 -12 5 -12 -1
-18 -6 -15 -15z"/>
<path d="M1715 810 c3 -5 8 -10 11 -10 2 0 4 5 4 10 0 6 -5 10 -11 10 -5 0 -7
-4 -4 -10z"/>
<path d="M755 800 c3 -5 10 -10 16 -10 5 0 9 5 9 10 0 6 -7 10 -16 10 -8 0
-12 -4 -9 -10z"/>
<path d="M1581 805 c1 -19 18 -51 18 -35 0 8 -4 22 -9 30 -5 8 -9 11 -9 5z"/>
<path d="M1327 794 c-3 -3 -59 -10 -124 -14 l-118 -9 118 3 c71 2 123 8 130
15 6 6 9 11 6 11 -3 0 -8 -3 -12 -6z"/>
<path d="M1943 785 c0 -8 4 -12 9 -9 5 3 6 10 3 15 -9 13 -12 11 -12 -6z"/>
<path d="M650 782 c0 -6 11 -17 25 -26 14 -9 25 -21 25 -27 0 -6 14 -28 32
-47 37 -42 35 -33 -7 29 -30 46 -75 88 -75 71z"/>
<path d="M706 777 c3 -10 9 -15 12 -12 3 3 0 11 -7 18 -10 9 -11 8 -5 -6z"/>
<path d="M930 784 c0 -5 6 -18 13 -29 12 -15 15 -16 22 -4 5 8 4 10 0 6 -5 -4
-15 3 -22 15 -7 13 -12 18 -13 12z"/>
<path d="M1490 781 c0 -6 4 -13 10 -16 6 -3 7 1 4 9 -7 18 -14 21 -14 7z"/>
<path d="M766 763 c-4 -10 0 -23 10 -32 15 -15 16 -14 7 4 -6 11 -8 26 -6 33
7 19 -4 14 -11 -5z"/>
<path d="M805 760 c10 -11 20 -20 22 -20 2 0 -1 9 -7 20 -6 11 -16 20 -22 20
-6 0 -3 -9 7 -20z"/>
<path d="M1060 770 c0 -5 5 -10 10 -10 6 0 10 5 10 10 0 6 -4 10 -10 10 -5 0
-10 -4 -10 -10z"/>
<path d="M1405 770 c-3 -5 -1 -10 4 -10 6 0 11 5 11 10 0 6 -2 10 -4 10 -3 0
-8 -4 -11 -10z"/>
<path d="M1766 768 c3 -5 10 -6 15 -3 13 9 11 12 -6 12 -8 0 -12 -4 -9 -9z"/>
<path d="M730 761 c0 -5 5 -13 10 -16 6 -3 10 -2 10 4 0 5 -4 13 -10 16 -5 3
-10 2 -10 -4z"/>
<path d="M1328 763 c6 -2 18 -2 25 0 6 3 1 5 -13 5 -14 0 -19 -2 -12 -5z"/>
<path d="M1836 755 c4 -8 8 -15 10 -15 2 0 4 7 4 15 0 8 -4 15 -10 15 -5 0 -7
-7 -4 -15z"/>
<path d="M1100 751 c0 -7 -4 -10 -8 -7 -5 3 -9 -1 -9 -9 0 -8 4 -15 8 -15 9 0
21 31 14 38 -3 3 -5 0 -5 -7z"/>
<path d="M1171 744 c0 -11 3 -14 6 -6 3 7 2 16 -1 19 -3 4 -6 -2 -5 -13z"/>
<path d="M1193 741 c0 -11 5 -17 9 -15 5 3 6 9 3 14 -3 4 1 11 7 13 8 4 7 6
-4 6 -11 1 -16 -6 -15 -18z"/>
<path d="M1238 748 c4 -4 21 -3 37 2 30 9 30 9 -7 7 -21 0 -34 -5 -30 -9z"/>
<path d="M640 743 c0 -5 9 -14 20 -21 11 -7 20 -8 20 -2 0 5 -9 14 -20 20 -11
6 -20 7 -20 3z"/>
<path d="M800 729 c6 -14 20 -30 31 -37 35 -22 16 16 -24 47 -17 13 -17 13 -7
-10z"/>
<path d="M840 742 c0 -4 10 -13 23 -21 22 -14 22 -14 3 8 -20 22 -26 25 -26
13z"/>
<path d="M1685 740 c-3 -5 -1 -10 4 -10 6 0 11 5 11 10 0 6 -2 10 -4 10 -3 0
-8 -4 -11 -10z"/>
<path d="M1120 730 c-9 -6 -10 -10 -3 -10 6 0 15 5 18 10 8 12 4 12 -15 0z"/>
<path d="M960 723 c0 -27 147 -143 182 -143 21 0 5 19 -23 25 -17 4 -58 33
-95 67 -35 33 -64 56 -64 51z"/>
<path d="M757 703 c45 -44 83 -76 83 -70 0 11 -79 87 -90 87 -6 0 -3 -8 7 -17z"/>
<path d="M1505 710 c3 -5 11 -10 16 -10 6 0 7 5 4 10 -3 6 -11 10 -16 10 -6 0
-7 -4 -4 -10z"/>
<path d="M1720 710 c-9 -6 -10 -10 -3 -10 6 0 15 5 18 10 8 12 4 12 -15 0z"/>
<path d="M640 705 c0 -2 16 -12 35 -24 33 -19 35 -19 26 -2 -8 15 -61 37 -61
26z"/>
<path d="M1318 703 c7 -3 16 -2 19 1 4 3 -2 6 -13 5 -11 0 -14 -3 -6 -6z"/>
<path d="M1630 700 c0 -5 5 -10 10 -10 6 0 10 5 10 10 0 6 -4 10 -10 10 -5 0
-10 -4 -10 -10z"/>
<path d="M1835 700 c-3 -5 -1 -10 4 -10 6 0 11 5 11 10 0 6 -2 10 -4 10 -3 0
-8 -4 -11 -10z"/>
<path d="M930 692 c0 -12 19 -26 26 -19 2 2 -2 10 -11 17 -9 8 -15 8 -15 2z"/>
<path d="M1135 690 c-3 -5 1 -10 10 -10 9 0 13 5 10 10 -3 6 -8 10 -10 10 -2
0 -7 -4 -10 -10z"/>
<path d="M1190 690 c0 -5 5 -10 11 -10 5 0 7 5 4 10 -3 6 -8 10 -11 10 -2 0
-4 -4 -4 -10z"/>
<path d="M1245 690 c-3 -5 1 -10 10 -10 9 0 13 5 10 10 -3 6 -8 10 -10 10 -2
0 -7 -4 -10 -10z"/>
<path d="M1859 683 c-12 -16 -12 -17 2 -6 9 7 20 9 24 5 5 -4 5 -1 1 6 -9 16
-11 15 -27 -5z"/>
<path d="M1550 680 c0 -5 5 -10 10 -10 6 0 10 5 10 10 0 6 -4 10 -10 10 -5 0
-10 -4 -10 -10z"/>
<path d="M1430 660 c-10 -19 -10 -20 9 -8 22 13 28 28 11 28 -5 0 -14 -9 -20
-20z"/>
<path d="M1780 669 c0 -5 -4 -7 -10 -4 -5 3 -7 0 -4 -9 3 -8 13 -17 22 -21 13
-5 14 -3 5 6 -6 6 -9 18 -6 25 3 8 2 14 -1 14 -3 0 -6 -5 -6 -11z"/>
<path d="M663 644 c18 -35 73 -94 88 -94 15 0 -11 35 -42 55 -15 11 -26 22
-24 26 3 3 -5 15 -17 25 l-21 19 16 -31z"/>
<path d="M858 663 c7 -3 16 -2 19 1 4 3 -2 6 -13 5 -11 0 -14 -3 -6 -6z"/>
<path d="M1366 662 c-2 -4 4 -9 15 -9 10 -1 19 2 19 8 0 11 -27 12 -34 1z"/>
<path d="M962 651 c-10 -6 4 -23 48 -64 34 -32 66 -57 72 -57 5 0 0 9 -13 20
-20 16 -21 19 -7 20 9 0 20 -4 23 -10 4 -6 54 -10 117 -10 133 0 141 8 10 11
-55 1 -102 7 -118 15 -15 8 -29 12 -32 9 -3 -2 -13 5 -23 17 -10 11 -29 21
-41 22 -15 1 -23 7 -22 19 1 9 1 17 0 17 0 0 -7 -4 -14 -9z m84 -78 c-6 -6
-46 30 -46 41 0 5 11 -1 25 -14 14 -13 23 -25 21 -27z"/>
<path d="M1320 650 c0 -5 5 -10 10 -10 6 0 10 5 10 10 0 6 -4 10 -10 10 -5 0
-10 -4 -10 -10z"/>
<path d="M1660 650 c0 -5 5 -10 10 -10 6 0 10 5 10 10 0 6 -4 10 -10 10 -5 0
-10 -4 -10 -10z"/>
<path d="M1690 650 c0 -5 9 -10 21 -10 11 0 17 5 14 10 -3 6 -13 10 -21 10 -8
0 -14 -4 -14 -10z"/>
<path d="M770 641 c0 -6 6 -11 14 -11 7 0 23 -14 36 -30 25 -32 38 -34 22 -3
-12 22 -72 58 -72 44z"/>
<path d="M853 637 c0 -7 7 -13 16 -13 9 -1 24 -5 35 -9 17 -7 17 -6 5 16 -7
14 -14 19 -16 12 -3 -9 -10 -10 -22 -3 -12 6 -18 5 -18 -3z"/>
<path d="M1625 640 c4 -6 11 -8 16 -5 14 9 11 15 -7 15 -8 0 -12 -5 -9 -10z"/>
<path d="M1830 641 c0 -6 4 -13 10 -16 6 -3 7 1 4 9 -7 18 -14 21 -14 7z"/>
<path d="M1510 629 c0 -6 -7 -9 -15 -6 -8 4 -17 2 -20 -3 -4 -6 5 -10 19 -10
16 0 26 6 26 15 0 8 -2 15 -5 15 -3 0 -5 -5 -5 -11z"/>
<path d="M1580 632 c0 -15 38 -44 44 -34 3 5 -4 12 -15 15 -12 3 -18 10 -14
16 3 6 1 11 -4 11 -6 0 -11 -4 -11 -8z"/>
<path d="M1540 616 c7 -7 13 -7 20 0 6 6 3 10 -10 10 -13 0 -16 -4 -10 -10z"/>
<path d="M930 617 c0 -2 14 -16 30 -32 36 -35 40 -29 5 9 -21 23 -35 32 -35
23z"/>
<path d="M1430 608 c0 -4 4 -8 9 -8 6 0 12 4 15 8 3 5 -1 9 -9 9 -8 0 -15 -4
-15 -9z"/>
<path d="M1660 616 c0 -9 30 -14 35 -6 4 6 -3 10 -14 10 -12 0 -21 -2 -21 -4z"/>
<path d="M1355 600 c-3 -5 3 -10 14 -10 12 0 21 -4 21 -10 0 -5 12 -9 28 -9
24 2 24 2 4 6 -13 3 -26 11 -29 19 -6 16 -29 19 -38 4z"/>
<path d="M1744 602 c4 -3 14 -7 22 -8 9 -1 13 0 10 4 -4 3 -14 7 -22 8 -9 1
-13 0 -10 -4z"/>
<path d="M766 592 c-3 -4 4 -9 15 -9 23 -2 25 3 4 10 -8 4 -16 3 -19 -1z"/>
<path d="M1160 589 c0 -5 23 -9 50 -9 28 0 50 4 50 9 0 5 -22 9 -50 9 -27 0
-50 -4 -50 -9z"/>
<path d="M1270 590 c0 -5 13 -10 29 -10 17 0 33 5 36 10 4 6 -8 10 -29 10 -20
0 -36 -4 -36 -10z"/>
<path d="M1500 591 c0 -14 25 -20 41 -10 8 5 12 9 9 10 -3 0 -15 2 -27 5 -13
2 -23 0 -23 -5z"/>
<path d="M890 559 c35 -22 64 -55 65 -74 1 -5 6 -9 13 -7 7 1 12 -3 12 -10 0
-6 3 -8 7 -5 3 4 13 1 22 -6 24 -21 51 -28 45 -13 -3 7 -20 19 -39 26 -19 8
-31 18 -28 24 3 6 3 8 -1 4 -9 -7 -46 27 -46 42 0 6 -7 10 -15 10 -8 0 -15 7
-15 15 0 10 -10 15 -27 15 l-28 0 35 -21z"/>
<path d="M1690 570 c0 -5 5 -10 11 -10 5 0 7 5 4 10 -3 6 -8 10 -11 10 -2 0
-4 -4 -4 -10z"/>
<path d="M1546 551 c-4 -5 -2 -12 3 -15 5 -4 12 -2 15 3 4 5 2 12 -3 15 -5 4
-12 2 -15 -3z"/>
<path d="M846 535 c4 -8 8 -15 10 -15 2 0 4 7 4 15 0 8 -4 15 -10 15 -5 0 -7
-7 -4 -15z"/>
<path d="M1471 540 c-9 -5 -4 -7 13 -7 29 0 32 2 13 10 -8 3 -20 2 -26 -3z"/>
<path d="M760 534 c0 -18 37 -47 45 -34 3 6 2 9 -4 8 -5 -2 -17 6 -25 17 -8
11 -16 15 -16 9z"/>
<path d="M1335 529 c-22 -4 -59 -8 -82 -8 -24 -1 -43 -4 -43 -8 0 -13 158 -4
166 9 3 5 10 5 16 2 7 -4 8 -2 4 4 -4 7 -10 11 -14 11 -4 -1 -25 -5 -47 -10z"/>
<path d="M1420 532 c0 -5 7 -9 15 -9 8 0 15 4 15 9 0 4 -7 8 -15 8 -8 0 -15
-4 -15 -8z"/>
<path d="M870 512 c0 -13 77 -72 94 -72 6 0 -7 12 -29 25 -22 14 -46 32 -52
42 -7 9 -13 11 -13 5z"/>
<path d="M1145 510 c3 -5 8 -10 11 -10 2 0 4 5 4 10 0 6 -5 10 -11 10 -5 0 -7
-4 -4 -10z"/>
<path d="M1170 510 c0 -5 5 -10 11 -10 5 0 7 5 4 10 -3 6 -8 10 -11 10 -2 0
-4 -4 -4 -10z"/>
<path d="M1556 503 c-11 -11 -6 -23 9 -23 8 0 15 4 15 9 0 13 -16 22 -24 14z"/>
<path d="M1597 503 c-4 -3 -7 -13 -7 -22 1 -13 3 -13 11 2 11 19 8 33 -4 20z"/>
<path d="M1620 498 c0 -4 6 -8 14 -8 8 0 17 4 20 8 2 4 -4 8 -15 8 -10 0 -19
-4 -19 -8z"/>
<path d="M1108 483 c7 -3 16 -2 19 1 4 3 -2 6 -13 5 -11 0 -14 -3 -6 -6z"/>
<path d="M1198 483 c6 -2 18 -2 25 0 6 3 1 5 -13 5 -14 0 -19 -2 -12 -5z"/>
<path d="M1248 483 c7 -3 16 -2 19 1 4 3 -2 6 -13 5 -11 0 -14 -3 -6 -6z"/>
<path d="M1467 483 c-13 -12 -7 -23 13 -23 11 0 20 4 20 10 0 5 -7 6 -17 3
-11 -4 -14 -3 -9 5 8 13 3 16 -7 5z"/>
<path d="M1513 475 c0 -8 4 -12 9 -9 4 3 8 9 8 15 0 5 -4 9 -8 9 -5 0 -9 -7
-9 -15z"/>
<path d="M1376 467 c3 -10 9 -15 12 -12 3 3 0 11 -7 18 -10 9 -11 8 -5 -6z"/>
<path d="M1408 473 c7 -3 16 -2 19 1 4 3 -2 6 -13 5 -11 0 -14 -3 -6 -6z"/>
<path d="M1436 465 c-9 -26 -7 -32 5 -12 6 10 9 21 6 23 -2 3 -7 -2 -11 -11z"/>
<path d="M1066 447 c3 -10 9 -15 12 -12 3 3 0 11 -7 18 -10 9 -11 8 -5 -6z"/>
<path d="M1097 453 c-10 -9 -9 -23 1 -23 5 0 9 7 9 15 0 17 -1 18 -10 8z"/>
<path d="M1120 445 c0 -7 30 -13 34 -7 3 4 -4 9 -15 9 -10 1 -19 0 -19 -2z"/>
<path d="M1180 438 c0 -4 4 -8 9 -8 6 0 12 4 15 8 3 5 -1 9 -9 9 -8 0 -15 -4
-15 -9z"/>
<path d="M1220 436 c0 -2 9 -6 20 -9 11 -3 18 -1 14 4 -5 9 -34 13 -34 5z"/>
<path d="M935 420 c-4 -6 3 -10 14 -10 25 0 27 6 6 13 -8 4 -17 2 -20 -3z"/>
</g>
</svg>
